<svg width="16" height="18" viewBox="0 0 16 18" fill="none" xmlns="http://www.w3.org/2000/svg">
<path d="M2.36858 6.73567C2.50106 5.74206 3.34863 5 4.35103 5H12.049C13.0514 5 13.8989 5.74206 14.0314 6.73567L15.0981 14.7357C15.258 15.9346 14.3252 17 13.1156 17H3.28437C2.07479 17 1.14205 15.9346 1.30191 14.7357L2.36858 6.73567Z" fill="black" stroke="white" stroke-width="1.5"/>
<path d="M11.4 5V4.2C11.4 2.43269 9.96731 1 8.2 1V1C6.43269 1 5 2.43269 5 4.2L5 5" stroke="white" stroke-width="1.5" stroke-linecap="round"/>
<path d="M4.6527 9.89406L4.96289 8.3641C5.05741 7.8979 5.46726 7.5628 5.94295 7.5628L7.4023 7.5628" stroke="white" stroke-width="1.5" stroke-linecap="round"/>
</svg>
