<svg width="20" height="20" viewBox="0 0 20 20" fill="none" xmlns="http://www.w3.org/2000/svg">
<mask id="path-1-outside-1_145_255" maskUnits="userSpaceOnUse" x="0" y="1" width="20" height="18" fill="black">
<rect fill="white" y="1" width="20" height="18"/>
<path d="M17.6074 3.41703C16.679 2.47234 15.4622 2 14.2452 2C13.0284 2 11.8116 2.47234 10.8832 3.41703L10 4.31572L9.1168 3.41703C8.1884 2.47234 6.9716 2 5.7548 2C4.5378 2 3.321 2.47234 2.3926 3.41703C0.5358 5.30639 0.5358 8.3698 2.3926 10.2592L10 18L17.6074 10.2592C19.4642 8.3698 19.4642 5.30639 17.6074 3.41703Z"/>
</mask>
<path d="M10.8832 3.41703L10.4646 3.00565V3.00566L10.8832 3.41703ZM10 4.31572L9.58141 4.72709L10 5.15302L10.4186 4.72709L10 4.31572ZM9.1168 3.41703L9.53539 3.00566V3.00565L9.1168 3.41703ZM2.3926 10.2592L2.81119 9.8478L2.3926 10.2592ZM10 18L9.58141 18.4114L10 18.8373L10.4186 18.4114L10 18ZM17.6074 10.2592L18.026 10.6705L17.6074 10.2592ZM18.026 3.00565C16.9839 1.94526 15.6147 1.41311 14.2452 1.41311V2.58689C15.3097 2.58689 16.3741 2.99942 17.1888 3.8284L18.026 3.00565ZM14.2452 1.41311C12.8758 1.41311 11.5067 1.94527 10.4646 3.00565L11.3018 3.8284C12.1165 2.99941 13.181 2.58689 14.2452 2.58689V1.41311ZM10.4646 3.00566L9.58141 3.90435L10.4186 4.72709L11.3018 3.8284L10.4646 3.00566ZM10.4186 3.90435L9.53539 3.00566L8.69821 3.8284L9.58141 4.72709L10.4186 3.90435ZM9.53539 3.00565C8.49328 1.94527 7.12416 1.41311 5.7548 1.41311V2.58689C6.81904 2.58689 7.88352 2.99941 8.69821 3.8284L9.53539 3.00565ZM5.7548 1.41311C4.38526 1.41311 3.01613 1.94526 1.97401 3.00565L2.81119 3.8284C3.62587 2.99942 4.69034 2.58689 5.7548 2.58689V1.41311ZM1.97401 3.00565C-0.107192 5.12336 -0.107192 8.55283 1.97401 10.6705L2.81119 9.8478C1.17879 8.18677 1.17879 5.48942 2.81119 3.8284L1.97401 3.00565ZM1.97401 10.6705L9.58141 18.4114L10.4186 17.5886L2.81119 9.8478L1.97401 10.6705ZM10.4186 18.4114L18.026 10.6705L17.1888 9.8478L9.58141 17.5886L10.4186 18.4114ZM18.026 10.6705C20.1072 8.55283 20.1072 5.12336 18.026 3.00565L17.1888 3.8284C18.8212 5.48942 18.8212 8.18677 17.1888 9.8478L18.026 10.6705Z" fill="#D9D9D9" mask="url(#path-1-outside-1_145_255)"/>
</svg>
