<svg width="51" height="51" viewBox="0 0 51 51" fill="none" xmlns="http://www.w3.org/2000/svg">
    <circle cx="25.5" cy="25.7812" r="24.7523" fill="black" stroke="white" stroke-width="0.495368" />
    <path d="M12.5189 14.453C12.3169 14.6595 12.0982 14.8175 11.8627 14.9272C11.6272 15.0319 11.3862 15.0893 11.1397 15.0995C10.8907 15.1072 10.6486 15.065 10.4135 14.9729C10.1783 14.8808 9.96253 14.7387 9.76614 14.5465C9.56974 14.3544 9.42295 14.1417 9.32575 13.9086C9.22855 13.6755 9.18234 13.4357 9.18712 13.189C9.19185 12.9373 9.24648 12.6926 9.351 12.4548C9.45301 12.2146 9.60501 11.9912 9.80703 11.7848C10.0263 11.5607 10.2599 11.395 10.5078 11.2877C10.7582 11.1778 11.0143 11.1302 11.276 11.1448L11.2751 11.7501C11.0709 11.7523 10.8857 11.7905 10.7196 11.8645C10.5535 11.9336 10.4002 12.0399 10.2598 12.1834C10.1243 12.3219 10.0213 12.4725 9.95081 12.6351C9.88034 12.7978 9.84478 12.9626 9.8441 13.1295C9.84343 13.2964 9.87634 13.4592 9.94284 13.6179C10.0118 13.7741 10.1143 13.9187 10.2502 14.0518C10.3837 14.1823 10.5292 14.2804 10.6869 14.3459C10.847 14.4089 11.0117 14.4395 11.1811 14.4377C11.3479 14.4334 11.5107 14.3955 11.6693 14.324C11.828 14.2525 11.9763 14.1463 12.1142 14.0053C12.2424 13.8743 12.3454 13.7287 12.4234 13.5685C12.5013 13.4032 12.5453 13.2172 12.5555 13.0103L13.1953 13.0893C13.1706 13.3361 13.0973 13.5798 12.9754 13.8203C12.8534 14.0558 12.7012 14.2667 12.5189 14.453ZM12.6766 13.491L11.6871 12.5228L12.1416 12.0582L13.1953 13.0893L12.6766 13.491Z" fill="white" />
    <path d="M14.6326 9.69323L16.2328 8.78729L16.5114 9.27929L14.9112 10.1852L14.6326 9.69323ZM15.4596 11.0466L17.2759 10.0183L17.5596 10.5195L15.1456 11.8863L13.3233 8.66756L15.673 7.33729L15.9567 7.83849L14.2048 8.83033L15.4596 11.0466Z" fill="white" />
    <path d="M19.8747 9.52211L19.0593 6.51312L17.8761 6.83376L17.724 6.27276L20.7534 5.45181L20.9055 6.01281L19.7223 6.33345L20.5377 9.34244L19.8747 9.52211Z" fill="white" />
    <path d="M25.8789 8.4805L26.3902 4.81726L27.8973 5.02761C28.2218 5.0729 28.4918 5.16394 28.7075 5.30075C28.9266 5.43804 29.0854 5.61313 29.1837 5.82603C29.282 6.03894 29.3124 6.27971 29.275 6.54834C29.2375 6.81698 29.1423 7.04022 28.9894 7.21807C28.8365 7.39591 28.6359 7.52085 28.3876 7.59289C28.1427 7.66541 27.858 7.67903 27.5336 7.63375L26.4032 7.47598L26.7513 7.19912L26.5592 8.57545L25.8789 8.4805ZM26.7411 7.27238L26.4836 6.90033L27.5825 7.05371C27.8826 7.09559 28.1164 7.0642 28.2839 6.95954C28.4554 6.85188 28.5573 6.68292 28.5894 6.45266C28.622 6.21891 28.5704 6.02853 28.4344 5.8815C28.3019 5.73497 28.0856 5.64076 27.7856 5.59888L26.6866 5.4455L27.0369 5.15294L26.7411 7.27238Z" fill="white" />
    <path d="M30.2381 8.99513L33.2729 6.30418L33.8897 6.58153L33.8959 10.6397L33.2405 10.345L33.3017 6.71688L33.5523 6.82955L30.8839 9.28547L30.2381 8.99513ZM31.2879 8.52859L31.6776 8.11286L33.4992 8.93189L33.4469 9.49929L31.2879 8.52859Z" fill="white" />
    <path d="M35.4051 11.5523L37.6352 8.6014L38.1832 9.01555L35.9532 11.9664L35.4051 11.5523Z" fill="white" />
    <path d="M37.5854 13.0683L40.4274 10.701L41.4622 11.9434C41.7193 12.2519 41.8852 12.5722 41.96 12.9042C42.0348 13.2361 42.0207 13.555 41.9178 13.8608C41.8149 14.1666 41.62 14.4389 41.3331 14.6779C41.0489 14.9146 40.7458 15.0571 40.4237 15.1053C40.1044 15.1512 39.7882 15.1074 39.4753 14.9738C39.1623 14.8402 38.8773 14.6192 38.6203 14.3106L37.5854 13.0683ZM38.4717 13.2241L39.0466 13.9143C39.2247 14.1281 39.4186 14.2783 39.6283 14.365C39.8402 14.4543 40.0543 14.4801 40.2703 14.4422C40.4886 14.4071 40.6952 14.3084 40.8901 14.1461C41.0877 13.9815 41.2221 13.7961 41.2934 13.59C41.3697 13.3844 41.383 13.1693 41.3335 12.9446C41.2862 12.7227 41.1735 12.5048 40.9954 12.291L40.4205 11.6008L38.4717 13.2241Z" fill="white" />
    <mask id="path-9-outside-1_609_266" maskUnits="userSpaceOnUse" x="20.0696" y="18.5328" width="4.79611" height="6.4983" fill="black">
        <rect fill="white" x="20.0696" y="18.5328" width="4.79611" height="6.4983" />
        <path fill-rule="evenodd" clip-rule="evenodd" d="M22.2844 19.9459C22.2724 19.8604 22.332 19.7813 22.4175 19.7693L22.9091 19.7002C22.9946 19.6882 23.0737 19.7478 23.0857 19.8333L23.1366 20.1951C23.1476 20.2736 23.2157 20.3309 23.2949 20.3331C23.362 20.3349 23.4291 20.3392 23.496 20.3459C23.6703 20.3604 23.8321 20.3916 23.9813 20.4397C24.0556 20.4636 24.0948 20.5426 24.0755 20.6183L23.9561 21.0849C23.933 21.175 23.8369 21.2247 23.7477 21.198C23.6298 21.1628 23.5142 21.1383 23.4009 21.1244C23.2346 21.1008 23.0765 21.0995 22.9265 21.1206C22.7928 21.1394 22.6873 21.1693 22.6099 21.2104C22.5321 21.2482 22.4785 21.2926 22.4491 21.3437C22.4197 21.3948 22.4092 21.45 22.4175 21.5092C22.4281 21.5849 22.4709 21.641 22.5459 21.6774C22.6236 21.7101 22.7217 21.7332 22.84 21.7468C22.961 21.7566 23.0921 21.7667 23.2333 21.7771C23.3776 21.787 23.5215 21.8054 23.665 21.8322C23.8112 21.8553 23.9467 21.8966 24.0715 21.9563C24.1958 22.0126 24.3007 22.0969 24.3863 22.209C24.4747 22.3174 24.5316 22.4621 24.557 22.643C24.5852 22.8438 24.5543 23.0377 24.4642 23.2249C24.3769 23.4083 24.228 23.5668 24.0173 23.7004C23.944 23.7475 23.8624 23.7893 23.7725 23.8257C23.7023 23.8541 23.6572 23.9252 23.6677 24.0002L23.7162 24.3454C23.7282 24.4309 23.6687 24.51 23.5832 24.522L23.0915 24.5911C23.006 24.6031 22.9269 24.5435 22.9149 24.458L22.8704 24.1415C22.8593 24.0623 22.7901 24.0047 22.7101 24.0039C22.5962 24.0028 22.4832 23.9956 22.371 23.9821C22.1595 23.9535 21.9757 23.9085 21.8197 23.8469C21.7497 23.8193 21.716 23.742 21.7365 23.6696L21.868 23.2051C21.8942 23.1127 21.9968 23.0658 22.0872 23.0981C22.2091 23.1415 22.3403 23.176 22.4808 23.2016C22.6917 23.2357 22.8967 23.2388 23.0956 23.2108C23.2293 23.192 23.3353 23.1654 23.4135 23.1309C23.4914 23.0931 23.5454 23.052 23.5758 23.0075C23.6089 22.9592 23.6215 22.9071 23.6136 22.8511C23.6025 22.7722 23.5579 22.7147 23.4797 22.6787C23.4015 22.6427 23.3032 22.6179 23.1849 22.6043C23.0666 22.5908 22.9353 22.579 22.7909 22.5691C22.6498 22.5587 22.5059 22.5404 22.3592 22.514C22.2158 22.4872 22.0819 22.4456 21.9576 22.3893C21.8328 22.3296 21.7263 22.2456 21.6379 22.1372C21.549 22.0256 21.4917 21.8776 21.4658 21.6933C21.4366 21.486 21.4657 21.2907 21.553 21.1073C21.6435 20.9234 21.7941 20.7647 22.0048 20.631C22.0749 20.5865 22.152 20.5468 22.2361 20.5119C22.3055 20.483 22.35 20.4124 22.3395 20.3379L22.2844 19.9459Z" />
    </mask>
    <path fill-rule="evenodd" clip-rule="evenodd" d="M22.2844 19.9459C22.2724 19.8604 22.332 19.7813 22.4175 19.7693L22.9091 19.7002C22.9946 19.6882 23.0737 19.7478 23.0857 19.8333L23.1366 20.1951C23.1476 20.2736 23.2157 20.3309 23.2949 20.3331C23.362 20.3349 23.4291 20.3392 23.496 20.3459C23.6703 20.3604 23.8321 20.3916 23.9813 20.4397C24.0556 20.4636 24.0948 20.5426 24.0755 20.6183L23.9561 21.0849C23.933 21.175 23.8369 21.2247 23.7477 21.198C23.6298 21.1628 23.5142 21.1383 23.4009 21.1244C23.2346 21.1008 23.0765 21.0995 22.9265 21.1206C22.7928 21.1394 22.6873 21.1693 22.6099 21.2104C22.5321 21.2482 22.4785 21.2926 22.4491 21.3437C22.4197 21.3948 22.4092 21.45 22.4175 21.5092C22.4281 21.5849 22.4709 21.641 22.5459 21.6774C22.6236 21.7101 22.7217 21.7332 22.84 21.7468C22.961 21.7566 23.0921 21.7667 23.2333 21.7771C23.3776 21.787 23.5215 21.8054 23.665 21.8322C23.8112 21.8553 23.9467 21.8966 24.0715 21.9563C24.1958 22.0126 24.3007 22.0969 24.3863 22.209C24.4747 22.3174 24.5316 22.4621 24.557 22.643C24.5852 22.8438 24.5543 23.0377 24.4642 23.2249C24.3769 23.4083 24.228 23.5668 24.0173 23.7004C23.944 23.7475 23.8624 23.7893 23.7725 23.8257C23.7023 23.8541 23.6572 23.9252 23.6677 24.0002L23.7162 24.3454C23.7282 24.4309 23.6687 24.51 23.5832 24.522L23.0915 24.5911C23.006 24.6031 22.9269 24.5435 22.9149 24.458L22.8704 24.1415C22.8593 24.0623 22.7901 24.0047 22.7101 24.0039C22.5962 24.0028 22.4832 23.9956 22.371 23.9821C22.1595 23.9535 21.9757 23.9085 21.8197 23.8469C21.7497 23.8193 21.716 23.742 21.7365 23.6696L21.868 23.2051C21.8942 23.1127 21.9968 23.0658 22.0872 23.0981C22.2091 23.1415 22.3403 23.176 22.4808 23.2016C22.6917 23.2357 22.8967 23.2388 23.0956 23.2108C23.2293 23.192 23.3353 23.1654 23.4135 23.1309C23.4914 23.0931 23.5454 23.052 23.5758 23.0075C23.6089 22.9592 23.6215 22.9071 23.6136 22.8511C23.6025 22.7722 23.5579 22.7147 23.4797 22.6787C23.4015 22.6427 23.3032 22.6179 23.1849 22.6043C23.0666 22.5908 22.9353 22.579 22.7909 22.5691C22.6498 22.5587 22.5059 22.5404 22.3592 22.514C22.2158 22.4872 22.0819 22.4456 21.9576 22.3893C21.8328 22.3296 21.7263 22.2456 21.6379 22.1372C21.549 22.0256 21.4917 21.8776 21.4658 21.6933C21.4366 21.486 21.4657 21.2907 21.553 21.1073C21.6435 20.9234 21.7941 20.7647 22.0048 20.631C22.0749 20.5865 22.152 20.5468 22.2361 20.5119C22.3055 20.483 22.35 20.4124 22.3395 20.3379L22.2844 19.9459Z" fill="white" />
    <path d="M23.496 20.3459L23.4921 20.3848L23.4928 20.3849L23.496 20.3459ZM23.4009 21.1244L23.3954 21.1631L23.3961 21.1632L23.4009 21.1244ZM22.6099 21.2104L22.627 21.2456L22.6283 21.2449L22.6099 21.2104ZM22.4491 21.3437L22.483 21.3632L22.483 21.3632L22.4491 21.3437ZM22.5459 21.6774L22.5288 21.7126L22.5307 21.7134L22.5459 21.6774ZM22.84 21.7468L22.8355 21.7857L22.8368 21.7858L22.84 21.7468ZM23.2333 21.7771L23.2304 21.8161L23.2306 21.8161L23.2333 21.7771ZM23.665 21.8322L23.6578 21.8706L23.6589 21.8708L23.665 21.8322ZM24.0715 21.9563L24.0546 21.9915L24.0553 21.9919L24.0715 21.9563ZM24.3863 22.209L24.3552 22.2327L24.356 22.2337L24.3863 22.209ZM24.4642 23.2249L24.429 23.2079L24.4289 23.2081L24.4642 23.2249ZM24.0173 23.7004L23.9964 23.6674L23.9962 23.6675L24.0173 23.7004ZM22.371 23.9821L22.3658 24.0208L22.3664 24.0209L22.371 23.9821ZM22.4808 23.2016L22.4738 23.2401L22.4745 23.2402L22.4808 23.2016ZM23.4135 23.1309L23.4293 23.1667L23.4306 23.1661L23.4135 23.1309ZM23.5758 23.0075L23.5435 22.9853L23.5435 22.9855L23.5758 23.0075ZM23.4797 22.6787L23.4633 22.7142L23.4633 22.7142L23.4797 22.6787ZM23.1849 22.6043L23.1894 22.5655L23.1849 22.6043ZM22.7909 22.5691L22.7881 22.6081L22.7882 22.6081L22.7909 22.5691ZM22.3592 22.514L22.352 22.5524L22.3523 22.5525L22.3592 22.514ZM21.9576 22.3893L21.9408 22.4245L21.9415 22.4249L21.9576 22.3893ZM21.6379 22.1372L21.6073 22.1616L21.6076 22.1619L21.6379 22.1372ZM21.553 21.1073L21.5179 21.09L21.5177 21.0905L21.553 21.1073ZM22.0048 20.631L21.9839 20.598L22.0048 20.631ZM22.2361 20.5119L22.2211 20.4758L22.2361 20.5119ZM22.3395 20.3379L22.3008 20.3433L22.3395 20.3379ZM23.5832 24.522L23.5886 24.5607L23.5832 24.522ZM23.7725 23.8257L23.7872 23.8619L23.7725 23.8257ZM21.868 23.2051L21.8304 23.1945L21.868 23.2051ZM22.0872 23.0981L22.0741 23.1349L22.0872 23.0981ZM23.9813 20.4397L23.9933 20.4025L23.9813 20.4397ZM24.0755 20.6183L24.1134 20.6279L24.0755 20.6183ZM22.9091 19.7002L22.9146 19.7389L22.9091 19.7002ZM22.7101 24.0039L22.7105 23.9648L22.7101 24.0039ZM22.4175 19.7693L22.412 19.7306L22.4175 19.7693ZM23.0915 24.5911L23.0861 24.5524L23.0915 24.5911ZM22.9037 19.6615L22.412 19.7306L22.4229 19.808L22.9146 19.7389L22.9037 19.6615ZM23.1753 20.1896L23.1244 19.8278L23.047 19.8387L23.0979 20.2005L23.1753 20.1896ZM23.4999 20.3071C23.432 20.3002 23.3641 20.2959 23.296 20.294L23.2938 20.3721C23.36 20.374 23.4261 20.3782 23.4921 20.3848L23.4999 20.3071ZM23.9933 20.4025C23.8409 20.3534 23.6762 20.3216 23.4992 20.307L23.4928 20.3849C23.6644 20.3991 23.8232 20.4298 23.9693 20.4769L23.9933 20.4025ZM23.994 21.0946L24.1134 20.6279L24.0376 20.6086L23.9182 21.0752L23.994 21.0946ZM23.3961 21.1632C23.5071 21.1768 23.6206 21.2009 23.7365 21.2355L23.7589 21.1606C23.6391 21.1248 23.5213 21.0998 23.4056 21.0856L23.3961 21.1632ZM22.932 21.1593C23.078 21.1388 23.2324 21.1399 23.3954 21.1631L23.4064 21.0857C23.2369 21.0616 23.0751 21.0602 22.9211 21.0819L22.932 21.1593ZM22.6283 21.2449C22.7 21.2068 22.8006 21.1778 22.932 21.1593L22.9211 21.0819C22.785 21.101 22.6746 21.1318 22.5916 21.1759L22.6283 21.2449ZM22.483 21.3632C22.5071 21.3214 22.5531 21.2814 22.627 21.2455L22.5929 21.1752C22.5111 21.2149 22.45 21.2638 22.4152 21.3242L22.483 21.3632ZM22.4562 21.5038C22.4491 21.453 22.458 21.4067 22.483 21.3632L22.4152 21.3242C22.3814 21.383 22.3693 21.447 22.3788 21.5147L22.4562 21.5038ZM22.563 21.6423C22.4985 21.6109 22.4649 21.5653 22.4562 21.5038L22.3788 21.5147C22.3914 21.6045 22.4434 21.671 22.5288 21.7126L22.563 21.6423ZM22.8444 21.708C22.7284 21.6947 22.6343 21.6722 22.561 21.6414L22.5307 21.7134C22.613 21.748 22.7149 21.7718 22.8355 21.7857L22.8444 21.708ZM23.2361 21.7381C23.0951 21.7278 22.9641 21.7177 22.8431 21.7079L22.8368 21.7858C22.958 21.7956 23.0892 21.8057 23.2304 21.8161L23.2361 21.7381ZM23.6722 21.7938C23.5272 21.7667 23.3818 21.7481 23.2359 21.7381L23.2306 21.8161C23.3734 21.8259 23.5158 21.8441 23.6578 21.8706L23.6722 21.7938ZM24.0883 21.921C23.9599 21.8596 23.8208 21.8172 23.6711 21.7936L23.6589 21.8708C23.8016 21.8933 23.9335 21.9336 24.0546 21.9915L24.0883 21.921ZM24.4174 22.1853C24.328 22.0682 24.218 21.9798 24.0876 21.9207L24.0553 21.9919C24.1735 22.0455 24.2734 22.1255 24.3552 22.2327L24.4174 22.1853ZM24.5957 22.6376C24.5696 22.4517 24.5107 22.2997 24.4166 22.1843L24.356 22.2337C24.4387 22.3351 24.4936 22.4724 24.5183 22.6485L24.5957 22.6376ZM24.4994 23.2418C24.5928 23.0479 24.625 22.8462 24.5957 22.6376L24.5183 22.6485C24.5454 22.8414 24.5158 23.0275 24.429 23.2079L24.4994 23.2418ZM24.0382 23.7334C24.2537 23.5967 24.4084 23.4331 24.4995 23.2416L24.4289 23.2081C24.3455 23.3834 24.2022 23.5368 23.9964 23.6674L24.0382 23.7334ZM23.7872 23.8619C23.879 23.8247 23.9628 23.7818 24.0384 23.7333L23.9962 23.6675C23.9251 23.7132 23.8457 23.7538 23.7578 23.7894L23.7872 23.8619ZM23.629 24.0056L23.6775 24.3509L23.7549 24.34L23.7064 23.9948L23.629 24.0056ZM23.5777 24.4833L23.0861 24.5524L23.0969 24.6298L23.5886 24.5607L23.5777 24.4833ZM22.9536 24.4526L22.9091 24.1361L22.8317 24.147L22.8762 24.4635L22.9536 24.4526ZM22.3664 24.0209C22.48 24.0345 22.5945 24.0419 22.7098 24.043L22.7105 23.9648C22.598 23.9638 22.4864 23.9566 22.3757 23.9433L22.3664 24.0209ZM21.8053 23.8833C21.9649 23.9462 22.1519 23.9919 22.3658 24.0208L22.3762 23.9434C22.167 23.9151 21.9864 23.8707 21.834 23.8106L21.8053 23.8833ZM21.8304 23.1945L21.6989 23.659L21.7741 23.6802L21.9056 23.2158L21.8304 23.1945ZM22.4878 23.1632C22.3491 23.1379 22.22 23.1039 22.1004 23.0612L22.0741 23.1349C22.1981 23.1791 22.3314 23.2142 22.4738 23.2401L22.4878 23.1632ZM23.0901 23.1721C22.8954 23.1995 22.6944 23.1965 22.487 23.163L22.4745 23.2402C22.6891 23.2749 22.898 23.2781 23.101 23.2495L23.0901 23.1721ZM23.3978 23.0951C23.3241 23.1276 23.2221 23.1536 23.0901 23.1721L23.101 23.2495C23.2365 23.2305 23.3464 23.2032 23.4293 23.1667L23.3978 23.0951ZM23.5435 22.9855C23.5186 23.0219 23.4715 23.0593 23.3965 23.0958L23.4306 23.1661C23.5112 23.1269 23.5722 23.0821 23.6081 23.0294L23.5435 22.9855ZM23.5749 22.8566C23.5814 22.9025 23.5713 22.9448 23.5435 22.9853L23.608 23.0296C23.6464 22.9736 23.6616 22.9117 23.6523 22.8457L23.5749 22.8566ZM23.4633 22.7142C23.5306 22.7451 23.5659 22.792 23.5749 22.8566L23.6523 22.8457C23.6392 22.7523 23.5852 22.6842 23.496 22.6432L23.4633 22.7142ZM23.1805 22.6432C23.2961 22.6564 23.39 22.6805 23.4633 22.7142L23.496 22.6432C23.4129 22.6049 23.3103 22.5794 23.1894 22.5655L23.1805 22.6432ZM22.7882 22.6081C22.9321 22.618 23.0629 22.6297 23.1805 22.6432L23.1894 22.5655C23.0704 22.5519 22.9384 22.5401 22.7936 22.5301L22.7882 22.6081ZM22.3523 22.5525C22.5003 22.5791 22.6455 22.5976 22.7881 22.6081L22.7938 22.5301C22.6541 22.5199 22.5115 22.5017 22.3661 22.4756L22.3523 22.5525ZM21.9415 22.4249C22.0688 22.4826 22.2057 22.5251 22.352 22.5524L22.3664 22.4756C22.2258 22.4493 22.095 22.4086 21.9738 22.3537L21.9415 22.4249ZM21.6076 22.1619C21.6996 22.2747 21.8107 22.3624 21.9408 22.4245L21.9745 22.354C21.855 22.2969 21.753 22.2165 21.6682 22.1125L21.6076 22.1619ZM21.4271 21.6988C21.4536 21.8879 21.513 22.043 21.6073 22.1616L21.6685 22.1129C21.5851 22.0081 21.5297 21.8673 21.5045 21.6879L21.4271 21.6988ZM21.5177 21.0905C21.427 21.281 21.3969 21.4841 21.4271 21.6988L21.5045 21.6879C21.4764 21.4879 21.5044 21.3003 21.5883 21.1241L21.5177 21.0905ZM21.9839 20.598C21.7684 20.7347 21.6123 20.8984 21.5179 21.09L21.588 21.1245C21.6748 20.9484 21.8198 20.7946 22.0257 20.664L21.9839 20.598ZM22.2211 20.4758C22.1352 20.5115 22.0561 20.5522 21.9839 20.598L22.0257 20.664C22.0938 20.6208 22.1689 20.5821 22.251 20.548L22.2211 20.4758ZM22.2457 19.9513L22.3008 20.3433L22.3782 20.3324L22.3231 19.9404L22.2457 19.9513ZM22.251 20.548C22.3354 20.5129 22.3914 20.4262 22.3782 20.3324L22.3008 20.3433C22.3086 20.3986 22.2756 20.4531 22.2211 20.4758L22.251 20.548ZM23.0979 20.2005C23.1117 20.2991 23.1967 20.3695 23.2938 20.3721L23.296 20.294C23.2346 20.2923 23.1835 20.2481 23.1753 20.1896L23.0979 20.2005ZM21.834 23.8106C21.7846 23.7911 21.7585 23.7353 21.7741 23.6802L21.6989 23.659C21.6735 23.7486 21.7148 23.8476 21.8053 23.8833L21.834 23.8106ZM23.6775 24.3509C23.6865 24.415 23.6419 24.4743 23.5777 24.4833L23.5886 24.5607C23.6955 24.5457 23.77 24.4469 23.7549 24.34L23.6775 24.3509ZM23.7578 23.7894C23.6726 23.824 23.6157 23.9112 23.629 24.0056L23.7064 23.9948C23.6986 23.9391 23.732 23.8842 23.7872 23.8619L23.7578 23.7894ZM21.9056 23.2158C21.925 23.1472 22.0028 23.1094 22.0741 23.1349L22.1004 23.0612C21.9908 23.0221 21.8633 23.0781 21.8304 23.1945L21.9056 23.2158ZM23.9693 20.4769C24.0222 20.4939 24.0523 20.5511 24.0376 20.6086L24.1134 20.6279C24.1374 20.5341 24.089 20.4333 23.9933 20.4025L23.9693 20.4769ZM22.9146 19.7389C22.9787 19.7299 23.038 19.7746 23.047 19.8387L23.1244 19.8278C23.1094 19.7209 23.0106 19.6465 22.9037 19.6615L22.9146 19.7389ZM22.9091 24.1361C22.8952 24.0367 22.8088 23.9658 22.7105 23.9648L22.7098 24.043C22.7715 24.0436 22.8234 24.0879 22.8317 24.147L22.9091 24.1361ZM22.412 19.7306C22.3051 19.7456 22.2307 19.8444 22.2457 19.9513L22.3231 19.9404C22.3141 19.8763 22.3588 19.817 22.4229 19.808L22.412 19.7306ZM23.9182 21.0752C23.9011 21.1421 23.8286 21.1814 23.7589 21.1606L23.7365 21.2355C23.8452 21.2679 23.9649 21.2079 23.994 21.0946L23.9182 21.0752ZM23.0861 24.5524C23.0219 24.5614 22.9626 24.5167 22.9536 24.4526L22.8762 24.4635C22.8912 24.5703 22.9901 24.6448 23.0969 24.6298L23.0861 24.5524Z" fill="white" mask="url(#path-9-outside-1_609_266)" />
    <path d="M14.1494 22.1198C14.1494 22.1198 15.666 21.5618 16.8289 21.2475C17.9918 20.9332 19.5381 20.5865 19.5381 20.5865" stroke="white" stroke-width="0.938015" stroke-linecap="round" />
    <path d="M12.5634 24.92C12.5634 24.92 13.6415 24.3819 15.8513 23.6853C18.0612 22.9887 19.0467 22.8665 19.0467 22.8665" stroke="white" stroke-width="0.938015" stroke-linecap="round" />
    <path d="M16.0491 25.8548C16.0491 25.8548 16.7399 25.5551 17.759 25.2912C18.778 25.0272 19.3657 24.9145 19.3657 24.9145" stroke="white" stroke-width="0.938015" stroke-linecap="round" />
    <path d="M12.8902 27.0585C12.8902 27.0585 13.2945 26.8625 13.6414 26.7228C13.9883 26.5831 14.4193 26.4232 14.4193 26.4232" stroke="white" stroke-width="0.938015" stroke-linecap="round" />
    <path fill-rule="evenodd" clip-rule="evenodd" d="M31.2363 20.7275C32.3087 20.774 33.1579 20.8429 33.6278 20.8863L33.87 28.3877C32.6222 28.1533 29.5322 27.6732 25.8506 27.839C23.4514 27.9471 21.433 28.2725 20.0125 28.5713C19.3021 28.7207 18.7406 28.8637 18.3551 28.9698C18.1623 29.0229 18.0135 29.0668 17.912 29.0977C17.8612 29.1131 17.8223 29.1253 17.7956 29.1338L17.7649 29.1437L17.7565 29.1464L17.754 29.1472L17.7533 29.1475L17.753 29.1476C17.7529 29.1476 17.7528 29.1477 17.9004 29.5928L17.7528 29.1477C17.5069 29.2292 17.3737 29.4946 17.4552 29.7404C17.5367 29.9863 17.802 30.1195 18.0479 30.0381L18.048 30.038L18.049 30.0377L18.0547 30.0358L18.0801 30.0277C18.1031 30.0204 18.1382 30.0093 18.1851 29.995C18.2789 29.9665 18.4197 29.925 18.604 29.8742C18.9727 29.7727 19.5156 29.6344 20.2057 29.4892C21.5862 29.1988 23.5535 28.8815 25.8928 28.7761C30.1254 28.5855 33.5586 29.2728 34.1602 29.4023C34.508 29.4772 34.8349 29.2056 34.8234 28.8489L34.5543 20.5127C34.5461 20.2602 34.359 20.0175 34.0676 19.9868C33.798 19.9585 32.7241 19.852 31.2363 19.7886V20.7275Z" fill="white" />
    <path d="M31.2459 20.783C32.2815 20.8282 33.1071 20.8942 33.5811 20.9374L33.8203 28.3469C32.5376 28.1087 29.4789 27.6437 25.844 27.8074C23.442 27.9156 21.4212 28.2413 19.9989 28.5405C19.2875 28.6902 18.7252 28.8334 18.3389 28.9397C18.1457 28.9929 17.9965 29.0369 17.8947 29.0679C17.8437 29.0834 17.8047 29.0956 17.7778 29.1042C17.7644 29.1084 17.754 29.1118 17.7468 29.1141L17.7383 29.1169L17.7347 29.1181C17.7346 29.1181 17.7345 29.1182 17.8957 29.6044L17.7345 29.1182C17.4659 29.2072 17.3204 29.4971 17.4094 29.7656C17.4985 30.0341 17.7882 30.1796 18.0567 30.0907L18.0578 30.0903L18.0634 30.0885C18.0687 30.0868 18.0771 30.0841 18.0885 30.0805C18.1113 30.0732 18.1463 30.0622 18.193 30.048C18.2865 30.0196 18.4269 29.9781 18.6108 29.9275C18.9788 29.8262 19.5207 29.6881 20.2099 29.5431C21.5886 29.2531 23.5535 28.9362 25.8901 28.8309C30.0993 28.6413 33.5171 29.3211 34.1386 29.4545C34.5266 29.5378 34.8739 29.2307 34.8616 28.8496L34.593 20.5291C34.5842 20.2544 34.3808 19.9882 34.0613 19.9547C33.7828 19.9256 32.718 19.8205 31.2459 19.7574V20.7525L34.008 20.4642L34.0079 20.465L31.2459 20.7531V20.783Z" fill="white" />
    <path d="M34.3236 23.9572C35.4482 24.3077 36.3542 24.6216 36.8678 24.8048L34.522 31.9623C33.5078 31.5016 31.1721 30.5703 28.4225 30.3405C26.6079 30.1888 25.0662 30.1995 23.9762 30.2484C23.431 30.2728 22.9983 30.3068 22.7004 30.3349C22.5515 30.349 22.4361 30.3615 22.3573 30.3707C22.3178 30.3753 22.2875 30.379 22.2666 30.3817C22.2562 30.383 22.2481 30.3841 22.2424 30.3848L22.2357 30.3857L22.2337 30.386L22.2331 30.3861L22.2328 30.3861C22.2327 30.3861 22.2326 30.3861 22.302 30.8937L22.2326 30.3861C21.9523 30.4244 21.7562 30.6828 21.7945 30.9631C21.8328 31.2434 22.0911 31.4396 22.3715 31.4012L22.372 31.4011L22.3763 31.4006C22.3803 31.4001 22.3866 31.3992 22.3954 31.3981C22.4129 31.3959 22.4397 31.3926 22.4756 31.3884C22.5474 31.3801 22.6553 31.3683 22.7966 31.355C23.0792 31.3283 23.4951 31.2955 24.0221 31.2719C25.0765 31.2247 26.5736 31.2141 28.3372 31.3615C31.4511 31.6218 34.0212 32.8454 34.5078 33.0899C34.8429 33.2583 35.2338 33.0804 35.3451 32.7408L37.9705 24.7301C38.0624 24.4495 37.9379 24.1047 37.6125 23.9848C37.3175 23.876 36.1678 23.4583 34.6061 22.972L34.3236 23.9572Z" fill="white" />
    <path d="M15.3209 19.5283C15.3209 19.5283 18.1559 18.5264 22.3827 17.9323C26.3137 17.3799 30.3125 17.5636 30.8529 17.592C30.8901 17.594 30.9184 17.6219 30.9236 17.6588L32.0896 25.9555C32.0965 26.0045 32.0587 26.0477 32.0093 26.0451C31.3627 26.0111 27.4694 25.8393 23.5709 26.3872C19.3019 26.9872 15.2766 28.4151 15.2766 28.4151" stroke="white" stroke-width="0.93791" stroke-linecap="round" />
    <path d="M8.5547 37.9951C8.3772 37.7672 8.23924 37.5241 8.14081 37.2659C8.04517 37.0055 8.00114 36.7742 8.00872 36.5718L8.57587 36.4315C8.57507 36.6196 8.6112 36.8236 8.68427 37.0436C8.75733 37.2635 8.86421 37.4638 9.00491 37.6444C9.12396 37.7973 9.23696 37.908 9.34391 37.9765C9.45085 38.045 9.54943 38.0798 9.63965 38.081C9.73264 38.08 9.81527 38.0514 9.88753 37.9951C9.97646 37.9258 10.0224 37.8387 10.0254 37.7336C10.0312 37.6264 10.0094 37.5095 9.95986 37.3829C9.91529 37.2568 9.85819 37.1205 9.78858 36.9738C9.72112 36.8298 9.65676 36.6813 9.59548 36.5281C9.53915 36.3755 9.50011 36.2251 9.47839 36.0768C9.4616 35.9291 9.47834 35.7843 9.5286 35.6425C9.57886 35.5007 9.68181 35.3691 9.83744 35.2479C9.99585 35.1245 10.1728 35.0537 10.3684 35.0353C10.5689 35.0175 10.7751 35.0645 10.9872 35.1762C11.2041 35.2885 11.4165 35.4781 11.6243 35.7449C11.7607 35.92 11.8737 36.111 11.9635 36.3179C12.0532 36.5248 12.1062 36.7247 12.1224 36.9175L11.5682 37.0745C11.5443 36.8833 11.4963 36.7041 11.4242 36.537C11.3549 36.3678 11.2704 36.2192 11.1708 36.0914C11.054 35.9413 10.9407 35.8331 10.8309 35.7667C10.7234 35.7032 10.6231 35.6719 10.5301 35.6729C10.4393 35.6766 10.3563 35.7077 10.2813 35.7662C10.1924 35.8355 10.1439 35.9223 10.136 36.0267C10.1329 36.1318 10.1551 36.2462 10.2025 36.3701C10.252 36.4967 10.3102 36.6345 10.377 36.7833C10.4466 36.9301 10.511 37.0786 10.5701 37.229C10.6314 37.3822 10.6718 37.5316 10.6914 37.6771C10.7131 37.8254 10.6977 37.969 10.6453 38.1081C10.5951 38.25 10.4935 38.3804 10.3406 38.4995C10.185 38.6207 10.007 38.6902 9.80645 38.7079C9.6109 38.7263 9.40464 38.6793 9.18767 38.567C8.97349 38.4525 8.7625 38.2619 8.5547 37.9951Z" fill="white" />
    <path d="M10.8177 40.8162L14.3613 38.8429L14.9038 39.2467L14.0348 43.2108L13.4584 42.7817L14.3004 39.2521L14.5208 39.4162L11.3857 41.239L10.8177 40.8162ZM11.9434 40.587L12.4135 40.2651L14.0158 41.4576L13.8423 42.0004L11.9434 40.587Z" fill="white" />
    <path d="M16.2201 44.6377L17.3884 41.1283L17.9248 41.3069L18.6061 44.3795L18.3253 44.286L20.6872 42.2265L21.2237 42.4051L20.0604 45.9162L19.4437 45.7109L20.2849 43.1674L20.4152 43.2108L18.4192 44.9243L18.1284 44.8275L17.5375 42.2528L17.6879 42.3029L16.8418 44.8447L16.2201 44.6377Z" fill="white" />
    <path d="M23.689 44.392L25.5275 44.4275L25.5166 44.9928L23.6781 44.9573L23.689 44.392ZM23.7113 45.9779L25.798 46.0182L25.7869 46.594L23.0134 46.5405L23.0848 42.8425L25.7844 42.8946L25.7732 43.4704L23.7604 43.4316L23.7113 45.9779Z" fill="white" />
    <path d="M31.3756 45.8742L29.9093 42.4785L31.3937 41.8375C31.7624 41.6783 32.1165 41.6098 32.4561 41.632C32.7957 41.6542 33.0975 41.7579 33.3617 41.9432C33.6258 42.1284 33.8319 42.3924 33.98 42.7352C34.1266 43.0748 34.1774 43.4058 34.1325 43.7283C34.0862 44.0476 33.9547 44.3384 33.738 44.6008C33.5214 44.8632 33.2287 45.074 32.86 45.2332L31.3756 45.8742ZM31.7758 45.0683L32.6005 44.7122C32.856 44.6018 33.0549 44.4584 33.1974 44.2818C33.3431 44.1038 33.4283 43.9058 33.4532 43.6879C33.4812 43.4685 33.445 43.2424 33.3445 43.0096C33.2425 42.7735 33.1028 42.5921 32.9253 42.4654C32.7497 42.3341 32.5471 42.2604 32.3176 42.2443C32.0914 42.2269 31.8505 42.2734 31.595 42.3837L30.7704 42.7398L31.7758 45.0683Z" fill="white" />
    <path d="M36.7256 43.4676L35.5947 39.5725L36.1096 39.1339L39.7789 40.8673L39.2318 41.3333L35.9799 39.7233L36.1891 39.5451L37.2647 43.0085L36.7256 43.4676ZM36.7539 42.3191L36.5453 41.7889L38.0659 40.4939L38.5561 40.7843L36.7539 42.3191Z" fill="white" />
    <path d="M42.015 38.3348L40.8006 37.5177L41.2369 37.6266L38.1351 37.4754L38.5451 36.8661L41.0403 36.9911L40.8102 37.3331L39.7605 35.0599L40.1381 34.4988L41.4463 37.3153L41.1841 36.9478L42.3984 37.7649L42.015 38.3348Z" fill="white" />
    <path fill-rule="evenodd" clip-rule="evenodd" d="M6.21094 26.2322C6.21094 22.9137 7.06088 19.7937 8.55494 17.0781L8.92027 17.4431C7.50797 20.0582 6.70631 23.0516 6.70631 26.2322C6.70631 28.7469 7.20744 31.1445 8.11529 33.3308L7.73751 33.7101C6.75492 31.4148 6.21094 28.887 6.21094 26.2322ZM42.7596 33.617C43.7173 31.3465 44.2467 28.8511 44.2467 26.2322C44.2467 23.1554 43.516 20.2492 42.2187 17.6777L41.8387 18.0257C43.0631 20.4992 43.7513 23.2853 43.7513 26.2322C43.7513 28.7197 43.2609 31.0927 42.3716 33.2598L42.7596 33.617Z" fill="white" />
</svg>
