<svg width="20" height="20" viewBox="0 0 20 20" fill="none" xmlns="http://www.w3.org/2000/svg">
<mask id="path-1-inside-1_11_414" fill="white">
<path d="M17.6074 3.41703C16.679 2.47234 15.4622 2 14.2452 2C13.0284 2 11.8116 2.47234 10.8832 3.41703L10 4.31572L9.1168 3.41703C8.1884 2.47234 6.9716 2 5.7548 2C4.5378 2 3.321 2.47234 2.3926 3.41703C0.5358 5.30639 0.5358 8.3698 2.3926 10.2592L10 18L17.6074 10.2592C19.4642 8.3698 19.4642 5.30639 17.6074 3.41703Z"/>
</mask>
<path d="M17.6074 3.41703C16.679 2.47234 15.4622 2 14.2452 2C13.0284 2 11.8116 2.47234 10.8832 3.41703L10 4.31572L9.1168 3.41703C8.1884 2.47234 6.9716 2 5.7548 2C4.5378 2 3.321 2.47234 2.3926 3.41703C0.5358 5.30639 0.5358 8.3698 2.3926 10.2592L10 18L17.6074 10.2592C19.4642 8.3698 19.4642 5.30639 17.6074 3.41703Z" fill="black"/>
<path d="M10.8832 3.41703L9.81336 2.36563L9.81336 2.36563L10.8832 3.41703ZM10 4.31572L8.93016 5.36712L10 6.45572L11.0698 5.36712L10 4.31572ZM9.1168 3.41703L10.1866 2.36563L10.1866 2.36563L9.1168 3.41703ZM2.3926 10.2592L3.46244 9.20777L2.3926 10.2592ZM10 18L8.93016 19.0514L10 20.14L11.0698 19.0514L10 18ZM17.6074 10.2592L18.6772 11.3106L17.6074 10.2592ZM18.6772 2.36563C17.4582 1.1252 15.8521 0.5 14.2452 0.5V3.5C15.0723 3.5 15.8998 3.81948 16.5376 4.46843L18.6772 2.36563ZM14.2452 0.5C12.6385 0.5 11.0324 1.12523 9.81336 2.36563L11.953 4.46843C12.5908 3.81946 13.4183 3.5 14.2452 3.5V0.5ZM9.81336 2.36563L8.93016 3.26432L11.0698 5.36712L11.953 4.46843L9.81336 2.36563ZM11.0698 3.26432L10.1866 2.36563L8.04696 4.46843L8.93016 5.36712L11.0698 3.26432ZM10.1866 2.36563C8.96762 1.12523 7.36151 0.5 5.7548 0.5V3.5C6.58169 3.5 7.40918 3.81946 8.04696 4.46843L10.1866 2.36563ZM5.7548 0.5C4.14792 0.5 2.5418 1.1252 1.32276 2.36563L3.46244 4.46843C4.1002 3.81948 4.92768 3.5 5.7548 3.5V0.5ZM1.32276 2.36563C-1.10759 4.8386 -1.10759 8.83759 1.32276 11.3106L3.46244 9.20777C2.17919 7.902 2.17919 5.77419 3.46244 4.46843L1.32276 2.36563ZM1.32276 11.3106L8.93016 19.0514L11.0698 16.9486L3.46244 9.20777L1.32276 11.3106ZM11.0698 19.0514L18.6772 11.3106L16.5376 9.20777L8.93016 16.9486L11.0698 19.0514ZM18.6772 11.3106C21.1076 8.83759 21.1076 4.8386 18.6772 2.36563L16.5376 4.46843C17.8208 5.77419 17.8208 7.902 16.5376 9.20777L18.6772 11.3106Z" fill="white" mask="url(#path-1-inside-1_11_414)"/>
<path fill-rule="evenodd" clip-rule="evenodd" d="M6.04334 5.53488C5.77369 5.56619 5.4124 5.67054 5.06669 5.97848C4.70675 6.2991 4.54698 6.61784 4.47572 6.85149C4.43992 6.96889 4.42632 7.0654 4.42148 7.1303C4.41906 7.16272 4.41884 7.18709 4.41909 7.20205C4.41922 7.20953 4.41947 7.21463 4.41962 7.21719C4.41967 7.218 4.4197 7.21856 4.41973 7.21885C4.43247 7.36205 4.30606 7.48733 4.13642 7.49911C3.96606 7.51093 3.8166 7.40381 3.80261 7.25984L4.11108 7.23842C3.80261 7.25984 3.8026 7.25971 3.80258 7.25957L3.80256 7.25929L3.8025 7.25867L3.80237 7.25724C3.80228 7.25619 3.80217 7.25496 3.80206 7.25356C3.80184 7.25074 3.8016 7.24722 3.80135 7.24301C3.80086 7.23458 3.80037 7.22339 3.80014 7.20962C3.79966 7.1821 3.80019 7.14418 3.80368 7.09738C3.81066 7.00387 3.82952 6.87427 3.87629 6.72094C3.97016 6.41312 4.17592 6.01188 4.61761 5.61843C5.07354 5.21231 5.5707 5.06172 5.95907 5.01662C6.15134 4.9943 6.31526 4.99791 6.43312 5.00748C6.49218 5.01228 6.54013 5.01861 6.57486 5.02408C6.59224 5.02682 6.60637 5.02935 6.61697 5.03138C6.62227 5.0324 6.6267 5.03329 6.63022 5.03402C6.63094 5.03417 6.63162 5.03431 6.63226 5.03445C6.6332 5.03464 6.63405 5.03483 6.63482 5.03499L6.63661 5.03538L6.63737 5.03555L6.63772 5.03563C6.63788 5.03566 6.63804 5.0357 6.56062 5.28352L6.63805 5.0357C6.80332 5.07257 6.90193 5.21569 6.8583 5.35536C6.81486 5.49441 6.64683 5.57761 6.48227 5.54198C6.4819 5.54191 6.4812 5.54177 6.48015 5.54157C6.47696 5.54096 6.47064 5.5398 6.46143 5.53835C6.44297 5.53544 6.41316 5.5314 6.37389 5.52821C6.29509 5.52181 6.18009 5.519 6.04334 5.53488ZM6.48069 5.54164C6.48063 5.54163 6.48056 5.54161 6.4805 5.5416C6.48034 5.54156 6.48019 5.54153 6.48003 5.54149L6.55904 5.2886C6.48003 5.54149 6.48018 5.54153 6.48033 5.54156M6.48069 5.54164L6.48062 5.54162L6.4805 5.5416" fill="white"/>
<path d="M6.4805 5.5416C6.48056 5.54161 6.48063 5.54163 6.48069 5.54164M6.4805 5.5416C6.48034 5.54156 6.48019 5.54153 6.48003 5.54149L6.55904 5.2886C6.48003 5.54149 6.48018 5.54153 6.48033 5.54156L6.48069 5.54164M6.4805 5.5416L6.48062 5.54162L6.48069 5.54164M6.4805 5.5416L6.48069 5.54164M5.06669 5.97848C5.4124 5.67054 5.77369 5.56619 6.04334 5.53488C6.18009 5.519 6.29509 5.52181 6.37389 5.52821C6.41316 5.5314 6.44297 5.53544 6.46143 5.53835C6.47064 5.5398 6.47696 5.54096 6.48015 5.54157C6.4812 5.54177 6.4819 5.54191 6.48227 5.54198C6.64683 5.57761 6.81486 5.49441 6.8583 5.35536C6.90193 5.21569 6.80332 5.07257 6.63805 5.0357L6.56062 5.28352C6.63804 5.0357 6.63788 5.03566 6.63772 5.03563L6.63737 5.03555L6.63661 5.03538L6.63482 5.03499C6.63405 5.03483 6.6332 5.03464 6.63226 5.03445C6.63162 5.03431 6.63094 5.03417 6.63022 5.03402C6.6267 5.03329 6.62227 5.0324 6.61697 5.03138C6.60637 5.02935 6.59224 5.02682 6.57486 5.02408C6.54013 5.01861 6.49218 5.01228 6.43312 5.00748C6.31526 4.99791 6.15134 4.9943 5.95907 5.01662C5.5707 5.06172 5.07354 5.21231 4.61761 5.61843C4.17592 6.01188 3.97016 6.41312 3.87629 6.72094C3.82952 6.87427 3.81066 7.00387 3.80368 7.09738C3.80019 7.14418 3.79966 7.1821 3.80014 7.20962C3.80037 7.22339 3.80086 7.23458 3.80135 7.24301C3.8016 7.24722 3.80184 7.25074 3.80206 7.25356C3.80217 7.25496 3.80228 7.25619 3.80237 7.25724L3.8025 7.25867L3.80256 7.25929L3.80258 7.25957C3.8026 7.25971 3.80261 7.25984 4.11108 7.23842L3.80261 7.25984C3.8166 7.40381 3.96606 7.51093 4.13642 7.49911C4.30606 7.48733 4.43247 7.36205 4.41972 7.21885C4.4197 7.21856 4.41967 7.218 4.41962 7.21719C4.41947 7.21463 4.41922 7.20953 4.41909 7.20205C4.41884 7.18709 4.41906 7.16272 4.42148 7.1303C4.42632 7.0654 4.43992 6.96889 4.47572 6.85149C4.54698 6.61784 4.70675 6.2991 5.06669 5.97848Z" stroke="white" stroke-width="0.714988" stroke-linecap="round"/>
</svg>
