<svg width="32" height="32" viewBox="0 0 32 32" fill="none" xmlns="http://www.w3.org/2000/svg">
<path d="M16.0364 0H15.9636C7.14714 0 0 7.14713 0 15.9636V16.0364C0 24.8529 7.14714 32 15.9636 32H16.0364C24.8529 32 32 24.8529 32 16.0364V15.9636C32 7.14713 24.8529 0 16.0364 0Z" fill="white"/>
<path d="M7.63142 10.6361C7.20988 10.2449 7.00024 9.76054 7.00024 9.18429C7.00024 8.60804 7.211 8.10241 7.63142 7.71002C8.05296 7.31875 8.59558 7.12256 9.2604 7.12256C9.92522 7.12256 10.4466 7.31875 10.867 7.71002C11.2885 8.10129 11.4981 8.59346 11.4981 9.18429C11.4981 9.77512 11.2874 10.2449 10.867 10.6361C10.4454 11.0274 9.91065 11.2236 9.2604 11.2236C8.61016 11.2236 8.05296 11.0274 7.63142 10.6361ZM11.1439 12.8806V24.8765H7.35338V12.8806H11.1439Z" fill="black"/>
<path d="M23.762 14.0656C24.5882 14.9624 25.0008 16.1934 25.0008 17.7608V24.6646H21.4009V18.2473C21.4009 17.4569 21.1958 16.8426 20.7865 16.4053C20.3773 15.9681 19.8258 15.7483 19.1351 15.7483C18.4445 15.7483 17.8929 15.967 17.4837 16.4053C17.0745 16.8426 16.8693 17.4569 16.8693 18.2473V24.6646H13.2482V12.8469H16.8693V14.4142C17.236 13.8918 17.7304 13.4792 18.3515 13.1754C18.9726 12.8716 19.671 12.7202 20.448 12.7202C21.8314 12.7202 22.9368 13.1687 23.762 14.0644V14.0656Z" fill="black"/>
</svg>
