<svg width="186" height="36" viewBox="0 0 186 36" fill="none" xmlns="http://www.w3.org/2000/svg">
<path d="M177.477 27.7517C182.257 27.7517 185.609 25.5263 185.609 21.5548C185.609 18.3023 183.69 16.5219 178.37 15.4605C175.725 14.947 175.12 14.5361 175.12 13.7487C175.12 12.9612 175.725 12.4818 177.127 12.4818C179.23 12.4818 181.428 13.0982 183.18 14.0225L184.964 9.94831C183.148 8.78424 179.867 7.99678 177.414 7.99678C172.954 7.99678 169.979 10.1537 169.979 14.091C169.979 17.3094 171.839 18.9528 176.968 19.843C179.675 20.3222 180.536 20.733 180.536 21.7259C180.536 22.8901 179.453 23.2324 177.796 23.2324C175.566 23.2324 173.432 22.6846 171.265 21.5205L169.513 25.5948C171.552 26.7589 174.388 27.7517 177.477 27.7517Z" fill="white"/>
<path d="M99.3304 27.7517C104.109 27.7517 107.461 25.5263 107.461 21.5548C107.461 18.3023 105.543 16.5219 100.223 15.4605C97.5782 14.947 96.973 14.5361 96.973 13.7487C96.973 12.9612 97.5782 12.4818 98.98 12.4818C101.083 12.4818 103.281 13.0982 105.033 14.0225L106.817 9.94831C105.001 8.78424 101.72 7.99678 99.2667 7.99678C94.8065 7.99678 91.8324 10.1537 91.8324 14.091C91.8324 17.3094 93.6915 18.9528 98.8207 19.843C101.529 20.3222 102.389 20.733 102.389 21.7259C102.389 22.8901 101.306 23.2324 99.649 23.2324C97.4189 23.2324 95.2845 22.6846 93.118 21.5205L91.3658 25.5948C93.4047 26.7589 96.2402 27.7517 99.3304 27.7517Z" fill="white"/>
<path d="M24.7686 6.36424C26.4434 6.36424 27.8011 4.99552 27.8011 3.30712C27.8011 1.61872 26.4434 0.25 24.7686 0.25C23.0939 0.25 21.7362 1.61872 21.7362 3.30712C21.7362 4.99552 23.0939 6.36424 24.7686 6.36424Z" fill="white"/>
<path d="M27.4525 8.49889H22.0874V27.5471H27.4525V8.49889Z" fill="white"/>
<path d="M55.5062 19.6714C55.805 21.7474 57.5624 23.1474 59.8156 23.1474C61.3062 23.1474 62.269 22.5881 63.1621 21.4346H68.7999C67.0424 25.4224 63.6928 27.7544 59.8156 27.7544C58.5354 27.7544 57.2677 27.5034 56.085 27.0159C54.9025 26.5285 53.8281 25.8139 52.9234 24.9132C52.0188 24.0126 51.3016 22.9434 50.8128 21.767C50.324 20.5904 50.0733 19.3297 50.0749 18.0567C50.0749 12.7829 54.3176 8.23588 59.7234 8.23588C65.2245 8.23588 69.4355 12.5523 69.4355 18.2211C69.4416 18.7078 69.3969 19.1939 69.302 19.6714H55.5062ZM63.9248 15.9807C63.4957 14.0848 61.8368 12.8493 59.7171 12.8493C57.7276 12.8493 56.002 14.0342 55.5856 15.9807H63.9248Z" fill="white"/>
<path d="M6.63564 24.6019C7.43211 26.6567 8.57902 27.5471 10.4268 27.5471C12.2427 27.5471 13.4215 26.6567 14.1862 24.5676L20.4523 8.49889H14.8539L10.4218 21.1088L5.98974 8.49889H0.391357L6.63564 24.6019Z" fill="white"/>
<path fill-rule="evenodd" clip-rule="evenodd" d="M138.367 27.7545C143.713 27.7545 148.048 23.3851 148.048 17.9952C148.048 12.6052 143.713 8.23588 138.367 8.23588C133.021 8.23588 128.687 12.6052 128.687 17.9952C128.687 23.3851 133.021 27.7545 138.367 27.7545ZM138.367 22.3457C140.75 22.3457 142.682 20.3978 142.682 17.9952C142.682 15.5925 140.75 13.6447 138.367 13.6447C135.984 13.6447 134.052 15.5925 134.052 17.9952C134.052 20.3978 135.984 22.3457 138.367 22.3457Z" fill="white"/>
<path fill-rule="evenodd" clip-rule="evenodd" d="M43.0772 0.25H48.4424V18.0048C48.4424 23.3948 44.1082 27.7641 38.7619 27.7641C33.4154 27.7641 29.0813 23.3948 29.0813 18.0048C29.0813 12.6149 33.4154 8.24554 38.7619 8.24554C40.3125 8.24554 41.778 8.61299 43.0772 9.26658V0.25ZM38.7619 22.3553C41.1452 22.3553 43.0772 20.4076 43.0772 18.0048C43.0772 15.6021 41.1452 13.6543 38.7619 13.6543C36.3785 13.6543 34.4465 15.6021 34.4465 18.0048C34.4465 20.4076 36.3785 22.3553 38.7619 22.3553Z" fill="white"/>
<path d="M114.58 9.37726V0.25H109.324V27.5289H114.573V17.4169C114.573 15.3388 116.244 13.6543 118.304 13.6543C120.366 13.6543 122.037 15.3388 122.037 17.4169V27.5289H127.324V16.0371C127.324 11.0675 122.973 8.19869 118.691 8.19869C117.255 8.19869 115.886 8.48484 114.58 9.37726Z" fill="white"/>
<path fill-rule="evenodd" clip-rule="evenodd" d="M154.813 35.75H149.448V17.9952C149.448 12.6052 153.782 8.23588 159.129 8.23588C164.475 8.23588 168.809 12.6052 168.809 17.9952C168.809 23.3851 164.475 27.7545 159.129 27.7545C157.578 27.7545 156.112 27.3869 154.813 26.7334V35.75ZM159.129 13.4095C156.746 13.4095 154.813 15.3573 154.813 17.7599C154.813 20.1627 156.746 22.1105 159.129 22.1105C161.512 22.1105 163.444 20.1627 163.444 17.7599C163.444 15.3573 161.512 13.4095 159.129 13.4095Z" fill="white"/>
<ellipse cx="80.9725" cy="17.9708" rx="9.585" ry="9.585" fill="white"/>
<path d="M84.8464 19.9349C85.8951 19.4511 86.5173 18.5639 86.5173 17.9516C86.5173 17.3392 86.0645 16.4387 84.9983 15.9742L78.6793 12.8058C77.8143 12.3721 76.7954 13.001 76.7954 13.9687L76.7954 15.1518C76.7954 15.6541 77.0846 16.1115 77.5384 16.3269L80.9671 17.9546L77.479 19.8348C77.058 20.0618 76.7954 20.5015 76.7954 20.9799L76.7954 21.9226C76.7954 22.8945 77.8225 23.5232 78.6881 23.081L84.8464 19.9349Z" fill="black"/>
</svg>
